<svg width="46" height="52" viewBox="0 0 46 52" fill="none" xmlns="http://www.w3.org/2000/svg">
<g opacity="0.7">
<path d="M22.7881 30C24.4449 30 25.7881 28.6569 25.7881 27C25.7881 25.3431 24.4449 24 22.7881 24C21.1312 24 19.7881 25.3431 19.7881 27C19.7881 28.6569 21.1312 30 22.7881 30Z" stroke="white" stroke-width="1.5"/>
<path d="M20.5661 35H25.0101C28.1311 35 29.6921 35 30.8131 34.265C31.2969 33.9482 31.7135 33.5391 32.0391 33.061C32.7881 31.961 32.7881 30.428 32.7881 27.364C32.7881 24.3 32.7881 22.767 32.0391 21.667C31.7135 21.189 31.2969 20.7799 30.8131 20.463C30.0931 19.99 29.1911 19.821 27.8101 19.761C27.1511 19.761 26.5841 19.271 26.4551 18.636C26.3565 18.1709 26.1004 17.7541 25.7299 17.456C25.3595 17.1579 24.8975 16.9969 24.4221 17H21.1541C20.1661 17 19.3151 17.685 19.1211 18.636C18.9921 19.271 18.4251 19.761 17.7661 19.761C16.3861 19.821 15.4841 19.991 14.7631 20.463C14.2796 20.78 13.8634 21.1891 13.5381 21.667C12.7881 22.767 12.7881 24.299 12.7881 27.364C12.7881 30.429 12.7881 31.96 13.5371 33.061C13.8611 33.537 14.2771 33.946 14.7631 34.265C15.8841 35 17.4451 35 20.5661 35Z" stroke="white" stroke-width="1.5"/>
<path d="M29.7881 24H28.7881" stroke="white" stroke-width="1.5" stroke-linecap="round"/>
</g>
</svg>
